<?xml version="1.0" encoding="UTF-8"?>
<!-- Generator: visioncortex VTracer 0.6.3 -->
<svg version="1.1" xmlns="http://www.w3.org/2000/svg" width="1280" height="593">
<path d="M0 0 C1.06 -0 2.12 -0 3.21 -0 C4.95 0.01 4.95 0.01 6.73 0.02 C8.56 0.02 8.56 0.02 10.43 0.03 C13.79 0.03 17.14 0.05 20.5 0.07 C22.59 0.08 24.69 0.09 26.79 0.1 C34.1 0.14 41.41 0.18 48.72 0.24 C55.54 0.29 62.36 0.31 69.17 0.33 C75.03 0.34 80.88 0.37 86.73 0.42 C90.23 0.44 93.72 0.46 97.22 0.46 C101.11 0.46 105.01 0.5 108.91 0.55 C110.07 0.54 111.23 0.53 112.42 0.53 C120.23 0.66 120.23 0.66 123.55 3.58 C125.09 6.65 126.26 9.66 127.32 12.92 C129.11 18.2 131.19 23.03 133.77 27.96 C135.16 30.8 136.07 33.68 137 36.69 C138.56 41.21 140.56 45.56 142.47 49.94 C143.54 52.44 144.54 54.92 145.45 57.49 C146.49 60.37 147.77 63.02 149.2 65.74 C151.77 70.76 153.71 75.92 155.65 81.2 C157.88 87.29 160.35 93.27 162.88 99.24 C166.28 107.32 169.59 115.44 172.82 123.6 C177.02 134.08 177.02 134.08 181.95 144.24 C184.37 148.91 185.94 153.9 187.67 158.87 C188.88 162.24 190.28 165.44 191.79 168.69 C193.58 172.85 195.09 177.12 196.6 181.39 C197.83 184.76 199.17 187.87 200.98 190.97 C202.48 193.54 203.5 195.6 204.32 198.42 C206.56 205.55 209.43 212.44 212.86 219.08 C215.27 223.85 216.91 228.81 218.59 233.88 C220.07 238.23 221.83 242.25 223.95 246.33 C225.33 249.15 226.32 252.07 227.32 255.05 C229.5 261.3 232.07 267.25 234.88 273.24 C235.91 275.56 236.9 277.89 237.88 280.24 C238.21 281.02 238.54 281.8 238.88 282.61 C239.46 284.12 240.01 285.65 240.5 287.19 C242.96 295.04 246.48 302.29 250.88 309.24 C253.61 303.97 256.04 298.88 257.88 293.24 C258.84 291.22 259.85 289.24 260.88 287.26 C262.02 284.96 262.95 282.63 263.88 280.24 C264.86 277.73 265.84 275.24 266.82 272.74 C267.07 272.09 267.32 271.43 267.58 270.76 C268.72 267.89 269.9 265.22 271.48 262.57 C272.92 260.18 273.62 258.11 274.32 255.42 C275.47 251.33 276.97 247.75 279.02 244.03 C279.94 242.12 280.44 240.3 280.88 238.24 C281.54 238.24 282.2 238.24 282.88 238.24 C283.21 236.26 283.54 234.28 283.88 232.24 C284.54 232.24 285.2 232.24 285.88 232.24 C285.98 231.68 286.08 231.12 286.18 230.55 C287.14 225.64 288.52 221.6 290.88 217.2 C292.19 214.63 293.13 211.99 294.11 209.29 C295.21 206.38 296.5 203.57 297.77 200.73 C299.05 197.85 300.29 194.95 301.51 192.05 C301.91 191.09 302.32 190.12 302.73 189.13 C303.94 186.2 303.94 186.2 304.91 183 C305.88 180.24 305.88 180.24 307.88 178.24 C308.71 176.09 309.47 173.92 310.2 171.74 C311.98 166.55 314.02 161.67 316.55 156.81 C318.14 153.74 319.61 150.62 321.07 147.49 C321.56 146.44 322.05 145.39 322.55 144.31 C323.84 141.33 324.87 138.33 325.88 135.24 C326.48 133.81 327.11 132.39 327.76 130.99 C329.16 127.89 330.47 124.78 331.7 121.61 C333.7 116.53 335.99 111.61 338.33 106.68 C340.98 101.09 343.57 95.54 345.38 89.61 C346.5 86.15 347.92 83.31 349.88 80.24 C350.56 78.58 351.23 76.91 351.88 75.24 C353.14 72.21 354.42 69.19 355.7 66.17 C358.44 59.67 361.17 53.15 363.85 46.62 C364.88 44.24 364.88 44.24 366.76 40.86 C368.26 37.35 368.11 35.85 366.88 32.24 C362.38 23.58 352.59 16.73 343.57 13.3 C338.74 11.95 333.71 11.47 328.73 10.97 C324.22 10.5 320.19 9.58 315.88 8.24 C315.26 5.36 315.26 5.36 314.88 2.24 C317.34 -0.22 318.67 0.01 322.03 -0 C322.75 0.01 323.47 0.02 324.21 0.03 C325.35 0.03 325.35 0.03 326.52 0.03 C329.1 0.04 331.67 0.06 334.24 0.09 C336.08 0.09 337.92 0.1 339.76 0.11 C344.77 0.13 349.77 0.17 354.78 0.2 C360.01 0.24 365.24 0.27 370.47 0.29 C379.25 0.34 388.04 0.4 396.82 0.46 C406.99 0.53 417.15 0.59 427.32 0.64 C438.12 0.7 448.93 0.76 459.74 0.83 C462.86 0.85 465.98 0.87 469.1 0.88 C474 0.91 478.9 0.94 483.8 0.98 C485.6 0.99 487.4 1 489.2 1.01 C491.65 1.03 494.1 1.04 496.56 1.06 C497.28 1.07 498 1.07 498.74 1.07 C503.65 1.12 503.65 1.12 505.88 2.24 C505.88 4.22 505.88 6.2 505.88 8.24 C501.44 9.89 497.34 10.63 492.63 11.11 C487.04 11.76 482.19 12.98 477.05 15.28 C474.06 16.6 471.04 17.41 467.88 18.24 C467.88 18.9 467.88 19.56 467.88 20.24 C465.2 22.19 462.66 23.92 459.57 25.17 C457.59 26.15 457.59 26.15 457.26 28.8 C457.13 29.6 457.01 30.41 456.88 31.24 C456.22 31.57 455.56 31.9 454.88 32.24 C443.23 50.92 444.58 74.99 444.62 96.18 C444.62 98.4 444.62 100.63 444.61 102.85 C444.6 108.83 444.61 114.8 444.61 120.78 C444.62 127.08 444.61 133.37 444.61 139.67 C444.61 150.91 444.61 162.16 444.62 173.4 C444.63 183.54 444.63 193.69 444.62 203.84 C444.61 215.68 444.61 227.53 444.61 239.37 C444.62 245.62 444.62 251.86 444.61 258.11 C444.6 263.99 444.61 269.87 444.62 275.75 C444.62 277.89 444.62 280.03 444.62 282.16 C444.6 292.84 444.83 303.42 445.77 314.06 C445.89 315.38 445.89 315.38 446.01 316.72 C447.96 336.61 453.71 356.35 468.88 370.24 C469.8 370.78 470.71 371.32 471.66 371.88 C472.39 372.33 473.13 372.78 473.88 373.24 C473.88 373.9 473.88 374.56 473.88 375.24 C474.54 375.48 475.2 375.73 475.88 375.99 C478.88 377.24 478.88 377.24 482.38 379.11 C492.58 384.3 503.82 386.11 515.02 387.74 C517.88 388.24 517.88 388.24 519.88 389.24 C522.75 389.28 525.59 389.26 528.45 389.19 C529.32 389.17 530.18 389.15 531.08 389.13 C532.92 389.09 534.77 389.04 536.62 388.99 C539.38 388.93 542.15 388.87 544.91 388.82 C561.42 388.45 576.99 386.98 592.88 382.24 C594.62 381.75 594.62 381.75 596.39 381.26 C613.91 376.24 631.96 363.32 642.06 347.91 C642.66 347.03 643.26 346.15 643.88 345.24 C644.54 345.24 645.2 345.24 645.88 345.24 C646.15 344.51 646.42 343.79 646.7 343.05 C648.54 338.67 651 335.05 653.88 331.3 C656.33 328.07 658.13 324.89 659.88 321.24 C660.85 319.63 661.83 318.02 662.82 316.42 C665.6 311.85 667.85 307.18 669.88 302.24 C670.54 302.24 671.2 302.24 671.88 302.24 C672.54 300.26 673.2 298.28 673.88 296.24 C674.21 296.24 674.54 296.24 674.88 296.24 C675.03 302.38 673.78 307.68 672.32 313.61 C671.21 318.34 670.66 322.41 670.88 327.24 C670.55 327.57 670.22 327.9 669.88 328.24 C667.78 345.36 667.8 361.59 677.88 376.24 C686.55 386.12 699.02 389.79 711.6 391.81 C713.88 392.24 713.88 392.24 715.88 393.24 C715.88 395.22 715.88 397.2 715.88 399.24 C715.08 399.24 714.27 399.24 713.44 399.24 C665.77 399.34 618.1 399.45 570.42 399.57 C564.71 399.58 558.99 399.59 553.27 399.61 C551.56 399.61 551.56 399.61 549.82 399.62 C531.36 399.66 512.9 399.7 494.45 399.74 C475.52 399.78 456.59 399.83 437.67 399.87 C425.98 399.9 414.29 399.93 402.61 399.95 C394.6 399.97 386.6 399.99 378.59 400.01 C373.97 400.02 369.34 400.03 364.72 400.04 C360.49 400.05 356.26 400.06 352.04 400.07 C350.5 400.08 348.97 400.08 347.43 400.08 C345.36 400.08 343.28 400.09 341.2 400.1 C340.05 400.1 338.89 400.1 337.7 400.11 C334.8 400.11 334.8 400.11 331.88 401.24 C331.22 400.91 330.56 400.58 329.88 400.24 C326.25 399.92 322.61 399.72 318.97 399.52 C315.88 399.24 315.88 399.24 314.88 398.24 C314.76 395.74 314.76 395.74 314.88 393.24 C316.73 391.39 319.39 391.92 321.86 391.74 C340.24 390.32 354.5 385.24 366.82 370.92 C373.05 362.15 374.61 351.68 375.61 341.19 C375.73 339.98 375.85 338.76 375.98 337.51 C377.18 324.66 377.3 311.86 377.26 298.96 C377.26 296.37 377.26 293.78 377.27 291.19 C377.28 284.97 377.27 278.75 377.26 272.53 C377.24 265.27 377.24 258.01 377.25 250.75 C377.25 237.81 377.24 224.87 377.22 211.92 C377.2 199.38 377.19 186.83 377.2 174.29 C377.2 160.57 377.2 146.85 377.19 133.14 C377.19 131.68 377.19 130.21 377.19 128.75 C377.19 128.04 377.19 127.32 377.19 126.58 C377.18 121.52 377.18 116.46 377.19 111.4 C377.19 104.62 377.18 97.83 377.16 91.05 C377.16 88.55 377.16 86.06 377.16 83.57 C377.16 80.18 377.16 76.78 377.14 73.39 C377.15 72.4 377.15 71.4 377.15 70.38 C377.15 69.47 377.14 68.57 377.14 67.63 C377.14 66.85 377.14 66.07 377.13 65.26 C377 62.92 377 62.92 374.88 60.24 C374.61 61.08 374.35 61.92 374.07 62.79 C372.83 66.38 371.4 69.82 369.88 73.3 C367.79 78.1 367.79 78.1 365.81 82.94 C364.97 85.01 364.04 86.95 363.01 88.92 C361.03 92.82 359.4 96.81 357.81 100.87 C356.57 104.02 355.22 107.13 353.88 110.24 C353.07 112.22 352.26 114.19 351.45 116.17 C350.03 119.59 348.58 122.95 346.88 126.24 C345.25 129.4 343.86 132.63 342.51 135.92 C339.4 143.49 336.08 150.98 332.33 158.24 C330.9 161.2 329.89 164.11 328.88 167.24 C327.62 170.32 326.32 173.37 325 176.43 C323.85 179.11 323.85 179.11 323.36 181.54 C323.2 182.1 323.04 182.66 322.88 183.24 C322.22 183.57 321.56 183.9 320.88 184.24 C319.97 186.54 319.15 188.82 318.38 191.17 C316.15 197.97 316.15 197.97 313.88 200.24 C313.22 201.84 312.63 203.47 312.07 205.11 C309.4 212.68 306.53 220.18 302.82 227.3 C300.71 231.35 299.27 235.59 297.81 239.92 C296.88 242.24 296.88 242.24 294.88 244.24 C294.21 245.95 293.59 247.68 293.01 249.42 C291.82 252.82 290.61 255.96 288.76 259.05 C286.95 262.13 285.99 264.86 284.88 268.24 C283.62 271.32 282.32 274.37 281 277.43 C279.85 280.11 279.85 280.11 279.36 282.54 C279.2 283.1 279.04 283.66 278.88 284.24 C278.22 284.57 277.56 284.9 276.88 285.24 C276.12 287.16 275.36 289.09 274.67 291.05 C273.16 295.26 271.35 299.31 269.32 303.3 C267.84 306.16 267.84 306.16 266.95 309.04 C265.89 312.2 264.68 315.23 263.38 318.3 C261.85 321.93 260.34 325.57 258.88 329.24 C258.22 329.24 257.56 329.24 256.88 329.24 C256.78 330.29 256.68 331.34 256.57 332.42 C255.88 336.27 254.96 338.01 252.88 341.24 C251.83 343.49 250.83 345.77 249.85 348.05 C249.21 349.5 248.53 350.93 247.82 352.33 C246.77 354.35 246.77 354.35 245.95 357.11 C244.88 360.24 244.88 360.24 243.47 362.99 C241.29 367.45 239.83 372.09 238.26 376.8 C236.88 380.24 236.88 380.24 234.88 383.22 C231.99 387.59 230.77 392.31 229.23 397.29 C227.88 400.24 227.88 400.24 226.1 401.34 C222.68 401.18 220.77 400.08 217.88 398.24 C216.13 395.74 215 393.05 213.82 390.25 C213.46 389.45 213.1 388.64 212.74 387.82 C211.58 385.19 210.45 382.56 209.32 379.92 C208.52 378.11 207.73 376.29 206.93 374.47 C204.93 369.92 202.96 365.36 200.99 360.8 C199.35 357 197.69 353.2 196.03 349.4 C192.41 341.11 188.83 332.8 185.28 324.48 C184.87 323.54 184.87 323.54 184.46 322.58 C183.72 320.83 182.97 319.08 182.22 317.34 C180.72 313.86 179.16 310.43 177.55 307.01 C176.88 305.24 176.88 305.24 176.88 302.24 C176.22 302.24 175.56 302.24 174.88 302.24 C174.54 301.36 174.54 301.36 174.18 300.47 C170.13 290.29 165.92 280.24 161.28 270.31 C160.09 267.68 158.99 265.05 157.95 262.36 C156.06 257.54 153.88 252.87 151.66 248.19 C149.13 242.82 146.74 237.39 144.37 231.94 C142.71 228.12 141.01 224.33 139.26 220.55 C137.5 216.73 135.97 212.87 134.51 208.92 C132.8 204.38 130.86 200.11 128.63 195.8 C125.06 188.84 122.14 181.67 119.22 174.42 C116.54 167.77 113.65 161.27 110.56 154.8 C107.83 149.01 105.3 143.13 102.76 137.25 C101.31 133.91 99.84 130.57 98.38 127.24 C96.62 123.2 94.85 119.17 93.1 115.13 C90.38 108.89 87.64 102.66 84.76 96.49 C82.42 91.47 80.27 86.41 78.18 81.29 C76.31 76.88 74.27 72.57 72.21 68.24 C70.9 65.28 69.89 62.31 68.88 59.24 C68.86 94.18 68.84 129.12 68.83 164.05 C68.83 168.18 68.83 172.31 68.83 176.44 C68.83 177.26 68.83 178.09 68.83 178.93 C68.82 192.23 68.81 205.52 68.81 218.81 C68.8 232.46 68.79 246.11 68.79 259.76 C68.79 268.18 68.78 276.59 68.77 285.01 C68.77 290.79 68.77 296.56 68.77 302.34 C68.77 305.67 68.77 309 68.76 312.33 C68.76 315.95 68.76 319.57 68.76 323.19 C68.76 324.23 68.76 325.27 68.75 326.33 C68.52 340.63 68.52 340.63 72.07 354.28 C73.02 356.58 73.62 358.89 74.26 361.3 C75.67 366.12 77.68 369.37 80.88 373.24 C81.54 373.57 82.2 373.9 82.88 374.24 C83.38 375.72 83.38 375.72 83.88 377.24 C85.86 378.74 87.75 379.98 89.88 381.24 C90.72 381.74 91.55 382.24 92.41 382.76 C97.54 385.71 102.15 387.91 108.01 388.91 C109.88 389.24 109.88 389.24 112.88 390.24 C114.26 390.39 115.63 390.51 117.01 390.61 C121.91 391.1 126.29 392.51 130.88 394.24 C130.88 395.89 130.88 397.54 130.88 399.24 C124.88 400.29 119.05 400.37 112.96 400.35 C111.35 400.35 111.35 400.35 109.7 400.35 C106.15 400.35 102.6 400.34 99.06 400.33 C96.59 400.33 94.12 400.33 91.65 400.33 C85.16 400.33 78.67 400.32 72.18 400.3 C65.57 400.29 58.96 400.29 52.35 400.29 C39.93 400.27 27.51 400.26 15.09 400.24 C11.91 400.23 8.75 400.24 5.57 400.38 C4.35 400.41 3.14 400.45 1.88 400.49 C0.67 400.53 -0.55 400.58 -1.8 400.63 C-5.12 400.24 -5.12 400.24 -7.55 398.22 C-8.07 397.57 -8.59 396.91 -9.12 396.24 C-8.79 395.25 -8.46 394.26 -8.12 393.24 C-3.83 391.83 0.14 391.18 4.63 390.86 C10.73 390.33 16.17 388.36 21.88 386.24 C23.08 385.84 24.28 385.45 25.51 385.05 C36.32 379.24 45.11 368.9 49.28 357.39 C51.15 350.67 51.32 343.46 51.68 336.53 C51.88 334.24 51.88 334.24 52.39 331.89 C52.86 329.36 53.01 327.1 53.01 324.53 C53.01 323.61 53.01 322.68 53.01 321.73 C53.01 320.73 53.01 319.72 53 318.69 C53 317.08 53 317.08 53.01 315.43 C53.01 311.83 53 308.22 53 304.62 C53 302.04 53 299.45 53 296.87 C53 291.31 52.99 285.75 52.99 280.19 C52.98 272.14 52.98 264.1 52.98 256.06 C52.97 243.01 52.97 229.97 52.96 216.92 C52.95 204.25 52.94 191.57 52.94 178.9 C52.94 178.12 52.94 177.34 52.94 176.53 C52.94 172.61 52.93 168.69 52.93 164.77 C52.92 132.26 52.91 99.75 52.88 67.24 C52.55 67.24 52.22 67.24 51.88 67.24 C51.39 56.84 51.39 56.84 50.88 46.24 C50.22 46.24 49.56 46.24 48.88 46.24 C48.71 45.67 48.54 45.1 48.37 44.51 C44.83 33.24 38.51 23.04 27.88 17.24 C25.78 16.49 23.65 15.8 21.51 15.17 C19.79 14.67 19.79 14.67 18.04 14.15 C16.99 13.85 15.95 13.55 14.88 13.24 C13 12.65 13 12.65 11.07 12.05 C7.98 11.26 5.04 10.86 1.88 10.52 C-1.23 10.08 -4.12 9.17 -7.12 8.24 C-7.45 6.26 -7.78 4.28 -8.12 2.24 C-4.81 0.03 -3.84 -0.01 0 0 Z M345.88 89.24 C346.88 91.24 346.88 91.24 346.88 91.24 Z M376.88 332.24 C376.88 334.55 376.88 336.86 376.88 339.24 C377.21 339.24 377.54 339.24 377.88 339.24 C377.88 336.93 377.88 334.62 377.88 332.24 C377.55 332.24 377.22 332.24 376.88 332.24 Z M52.88 334.24 C52.88 336.22 52.88 338.2 52.88 340.24 C53.21 340.24 53.54 340.24 53.88 340.24 C53.88 338.26 53.88 336.28 53.88 334.24 C53.55 334.24 53.22 334.24 52.88 334.24 Z M533.88 390.24 C533.88 390.57 533.88 390.9 533.88 391.24 C537.84 391.24 541.8 391.24 545.88 391.24 C545.88 390.91 545.88 390.58 545.88 390.24 C541.92 390.24 537.96 390.24 533.88 390.24 Z " fill="#FBFBFB" transform="translate(129.11729431152344,98.76380920410156)"/>
<path d="M0 0 C1.98 -0.04 1.98 -0.04 4 -0.09 C7.56 0.38 7.56 0.38 9.91 2.02 C11.82 4.74 12.62 7.19 13.56 10.38 C14.49 12.47 15.45 14.55 16.44 16.62 C18.71 21.48 20.81 26.34 22.7 31.35 C23.59 33.62 23.59 33.62 25.56 36.38 C26.25 38.37 26.92 40.37 27.56 42.38 C28.48 44.8 29.41 47.22 30.38 49.62 C30.77 50.61 30.77 50.61 31.17 51.62 C33.04 56.26 35.19 60.7 37.49 65.14 C38.5 67.24 39.25 69.27 39.94 71.5 C41.3 75.87 43.08 80 44.94 84.19 C45.24 84.88 45.55 85.57 45.87 86.28 C46.48 87.66 47.09 89.04 47.7 90.42 C50.4 96.53 53.06 102.63 55.06 109 C56.41 113.24 58.32 117.07 60.36 121.01 C64.56 129.25 64.56 129.25 64.56 133.38 C65.22 133.38 65.88 133.38 66.56 133.38 C68.61 137.91 70.31 142.49 71.94 147.19 C73.74 152.3 75.8 157.02 78.31 161.81 C80.29 165.85 81.8 170.06 83.38 174.27 C84.66 177.63 86.1 180.9 87.58 184.18 C88.7 186.68 89.77 189.21 90.81 191.75 C91.15 192.56 91.48 193.37 91.83 194.21 C92.56 196.38 92.56 196.38 92.56 199.38 C93.22 199.38 93.88 199.38 94.56 199.38 C94.73 199.93 94.9 200.49 95.08 201.06 C96.57 205.75 98.31 210.05 100.59 214.4 C101.58 216.42 102.37 218.44 103.12 220.56 C103.98 222.94 104.8 224.76 106.12 226.94 C107.56 229.38 107.56 229.38 108.5 232.69 C109.32 235.54 110.09 237.53 111.45 240.08 C113.54 244.2 115.05 248.37 116.5 252.75 C118.44 258.44 120.59 263.79 123.41 269.12 C125.04 272.3 126.3 275.6 127.59 278.93 C128.55 281.33 129.6 283.66 130.69 286 C132.52 290.06 133.61 294.03 134.56 298.38 C135.22 298.38 135.88 298.38 136.56 298.38 C137.1 299.73 137.65 301.08 138.19 302.44 C138.55 303.34 138.91 304.25 139.29 305.18 C140.21 307.5 141.14 309.81 142.06 312.13 C142.45 313.11 142.45 313.11 142.84 314.1 C143.6 315.99 144.35 317.87 145.1 319.76 C147.93 326.75 151.06 333.31 154.78 339.86 C156.89 343.71 158.11 346.93 158.56 351.38 C159.22 351.38 159.88 351.38 160.56 351.38 C160.8 351.96 161.05 352.54 161.3 353.13 C164.47 361.44 164.47 361.44 170.56 367.38 C170.93 368.08 171.31 368.78 171.69 369.5 C178.95 380.63 191.86 385.26 204.3 387.97 C207.05 388.51 209.81 389.01 212.56 389.5 C214.42 389.83 216.27 390.17 218.12 390.51 C218.93 390.65 219.74 390.79 220.57 390.94 C222.56 391.38 222.56 391.38 224.56 392.38 C225.19 395.44 225.19 395.44 225.56 398.38 C222.56 400.38 222.56 400.38 218.56 400.38 C217.57 400.05 216.58 399.71 215.56 399.38 C213.11 399.28 210.68 399.24 208.23 399.25 C207.48 399.25 206.72 399.24 205.95 399.24 C203.42 399.24 200.89 399.24 198.36 399.25 C196.55 399.24 194.74 399.24 192.93 399.24 C188.01 399.24 183.09 399.24 178.17 399.24 C173.03 399.24 167.88 399.24 162.74 399.24 C154.1 399.24 145.47 399.24 136.83 399.24 C126.84 399.25 116.84 399.25 106.85 399.24 C98.27 399.24 89.7 399.24 81.13 399.24 C76.01 399.24 70.88 399.24 65.76 399.24 C60.94 399.24 56.13 399.24 51.31 399.24 C49.54 399.24 47.77 399.24 46 399.24 C43.59 399.24 41.18 399.24 38.77 399.25 C38.06 399.25 37.35 399.24 36.62 399.24 C32.97 399.21 32.97 399.21 29.56 400.38 C29.23 397.74 28.9 395.1 28.56 392.38 C32.95 390.76 36.99 389.99 41.62 389.5 C51.36 388.34 60.57 386.26 68.56 380.38 C69.55 380.38 70.54 380.38 71.56 380.38 C71.89 379.06 72.22 377.74 72.56 376.38 C73.88 376.05 75.2 375.71 76.56 375.38 C76.69 374.79 76.81 374.2 76.94 373.6 C77.56 371.37 78.42 369.78 79.6 367.8 C82.17 362.77 82.13 358.12 82 352.56 C81.99 351.58 81.97 350.6 81.96 349.59 C81.78 342.76 81.05 336.78 78.56 330.38 C78.11 329.1 77.65 327.83 77.2 326.55 C75.07 320.62 72.79 314.82 70.15 309.09 C67.12 302.5 64.54 295.76 61.96 288.98 C59.76 283.28 57.39 277.72 54.83 272.17 C52.61 267.27 50.56 262.29 48.5 257.31 C48.08 256.3 47.66 255.29 47.22 254.25 C44.92 248.69 42.65 243.13 40.43 237.54 C39.37 234.89 38.29 232.26 37.19 229.62 C36.77 228.63 36.36 227.63 35.93 226.61 C34.94 224.28 33.94 221.96 32.91 219.64 C32.63 219.01 32.36 218.39 32.07 217.74 C31.29 215.96 30.49 214.18 29.7 212.41 C28.56 209.38 28.56 209.38 28.56 205.38 C27.9 205.38 27.24 205.38 26.56 205.38 C26.22 204.39 26.22 204.39 25.86 203.39 C25.54 202.48 25.21 201.57 24.88 200.62 C24.56 199.74 24.25 198.86 23.93 197.95 C22.34 193.8 20.63 189.71 18.91 185.6 C16.72 180.36 14.58 175.08 12.44 169.81 C11.97 168.66 11.5 167.51 11.02 166.32 C9.03 161.44 7.05 156.57 5.06 151.69 C3.61 148.11 2.15 144.52 0.69 140.94 C0.25 139.86 -0.19 138.77 -0.65 137.66 C-3.16 131.48 -5.71 125.31 -8.28 119.15 C-9.59 116.02 -10.88 112.87 -12.16 109.73 C-14.54 103.93 -16.94 98.16 -19.53 92.45 C-21.28 88.47 -22.85 84.42 -24.44 80.38 C-26.71 82.65 -27.26 84.24 -28.31 87.25 C-28.83 88.73 -28.83 88.73 -29.37 90.23 C-30.42 93.33 -31.43 96.45 -32.44 99.56 C-33.78 103.65 -35.35 107.33 -37.37 111.12 C-38.79 114.13 -39.85 117.23 -40.94 120.38 C-42.26 124.17 -43.54 127.83 -45.44 131.38 C-47.89 135.98 -49.49 140.89 -51.19 145.81 C-53.58 152.64 -56.19 159.38 -58.81 166.12 C-59.27 167.31 -59.27 167.31 -59.74 168.51 C-61.47 172.95 -63.26 177.36 -65.12 181.75 C-67.2 186.65 -68.89 191.61 -70.53 196.67 C-71.65 200.01 -73 203.16 -74.44 206.38 C-74.77 207.37 -75.1 208.36 -75.44 209.38 C-80.39 209.38 -85.34 209.38 -90.44 209.38 C-91.44 206.38 -91.44 206.38 -90.87 204.68 C-90.54 204.02 -90.21 203.36 -89.88 202.69 C-87.8 198.31 -86.1 193.86 -84.44 189.31 C-82.65 184.43 -80.74 179.8 -78.3 175.21 C-76.93 172.3 -76.16 169.24 -75.28 166.15 C-72.93 158.42 -69.79 150.91 -66.43 143.57 C-61.93 133.61 -57.69 123.48 -54.38 113.06 C-52.86 108.36 -50.88 104.17 -48.59 99.81 C-47.06 96.57 -46.14 93.27 -45.18 89.82 C-43.97 85.84 -42.19 82.14 -40.44 78.38 C-38.97 75.08 -37.58 71.8 -36.44 68.38 C-35.44 65.38 -35.44 65.38 -33.88 61.75 C-32.8 59.24 -31.97 57.03 -31.44 54.38 C-30.78 54.38 -30.12 54.38 -29.44 54.38 C-29.35 53.78 -29.26 53.19 -29.18 52.57 C-28.15 46.54 -26.31 41.53 -23.66 36.03 C-22.57 33.66 -21.71 31.36 -20.94 28.88 C-19.55 24.48 -17.66 20.4 -15.7 16.23 C-14.02 12.43 -12.71 8.54 -11.43 4.59 C-9.17 -0.46 -4.8 0.01 0 0 Z M-19.44 25.38 C-18.44 27.38 -18.44 27.38 -18.44 27.38 Z M83.56 347.38 C83.56 351 83.56 354.63 83.56 358.38 C83.89 358.38 84.22 358.38 84.56 358.38 C84.56 354.75 84.56 351.12 84.56 347.38 C84.23 347.38 83.9 347.38 83.56 347.38 Z " fill="#FBFBFB" transform="translate(922.4375,99.625)"/>
<path d="M0 0 C1.22 0.01 1.22 0.01 2.47 0.02 C3.27 0.02 4.07 0.01 4.89 0 C9.56 0.02 13.33 0.49 17.72 2.27 C17.72 2.93 17.72 3.59 17.72 4.27 C18.71 4.6 19.7 4.93 20.72 5.27 C20.95 7.29 21.17 9.31 21.4 11.33 C21.63 13.35 21.63 13.35 22.72 15.27 C21.78 17.63 20.79 19.97 19.72 22.27 C18.73 22.27 17.74 22.27 16.72 22.27 C17.14 27.56 19.2 31.37 21.76 35.91 C22.84 38.57 22.73 39.64 21.72 42.27 C18.14 42.61 16.25 42.62 13.19 40.65 C10.36 37.93 9.3 35.68 7.91 32.02 C7.49 30.95 7.07 29.87 6.64 28.76 C6.33 27.94 6.03 27.12 5.72 26.27 C4.73 26.27 3.74 26.27 2.72 26.27 C2.39 31.22 2.06 36.17 1.72 41.27 C-1.25 41.27 -4.22 41.27 -7.28 41.27 C-8.88 38.07 -8.44 34.58 -8.45 31.05 C-8.45 30.24 -8.46 29.43 -8.46 28.59 C-8.46 26.87 -8.47 25.15 -8.47 23.42 C-8.47 20.78 -8.49 18.14 -8.51 15.5 C-8.51 13.83 -8.51 12.16 -8.51 10.49 C-8.52 9.3 -8.52 9.3 -8.53 8.09 C-8.5 0.93 -7.1 0.02 0 0 Z M0.72 7.27 C1.05 8.26 1.38 9.25 1.72 10.27 C1.72 9.61 1.72 8.95 1.72 8.27 C2.38 7.94 3.04 7.61 3.72 7.27 C2.73 7.27 1.74 7.27 0.72 7.27 Z M5.72 7.27 C9.72 8.27 9.72 8.27 9.72 8.27 Z M3.72 8.27 C1.43 11.71 1.54 13.26 1.72 17.27 C4.69 17.27 7.66 17.27 10.72 17.27 C10.72 14.63 10.72 11.99 10.72 9.27 C8.41 8.94 6.1 8.61 3.72 8.27 Z " fill="#FAFAFA" transform="translate(834.28125,335.7265625)"/>
<path d="M0 0 C2.67 1.83 3.95 2.97 5.56 5.75 C5.9 9.05 5.9 9.05 5.86 12.92 C5.85 13.6 5.85 14.29 5.84 14.99 C5.83 17.16 5.79 19.33 5.75 21.5 C5.73 22.98 5.72 24.45 5.71 25.93 C5.68 29.53 5.62 33.14 5.56 36.75 C4.94 37.04 4.33 37.33 3.69 37.62 C1.43 38.69 1.43 38.69 -0.44 40.75 C-3.26 41.03 -5.93 41.17 -8.75 41.19 C-9.51 41.22 -10.27 41.25 -11.05 41.29 C-15.34 41.33 -16.93 41.17 -20.36 38.35 C-21.04 37.49 -21.73 36.63 -22.44 35.75 C-23.1 35.09 -23.76 34.43 -24.44 33.75 C-24.95 29.35 -24.85 24.92 -24.88 20.5 C-24.91 19.27 -24.94 18.04 -24.97 16.78 C-25.03 6.64 -25.03 6.64 -22.08 2.98 C-15.85 -2.27 -7.51 -2.73 0 0 Z M-13.11 6.95 C-15.78 10.57 -14.95 15.41 -14.94 19.75 C-14.97 20.76 -14.99 21.77 -15.02 22.81 C-15.19 28.51 -15.19 28.51 -12.22 33.06 C-8.84 33.9 -7.54 33.14 -4.44 31.75 C-4.41 27.98 -4.39 24.21 -4.38 20.44 C-4.37 19.37 -4.36 18.29 -4.35 17.19 C-4.35 16.16 -4.34 15.13 -4.34 14.07 C-4.33 13.13 -4.33 12.18 -4.32 11.2 C-4.33 8.61 -4.33 8.61 -5.44 5.75 C-9.51 5.35 -9.51 5.35 -13.11 6.95 Z " fill="#FAFAFA" transform="translate(887.4375,337.25)"/>
<path d="M0 0 C1.02 0.87 1.02 0.87 2.06 1.75 C2.83 2.37 3.59 2.99 4.38 3.62 C6.42 6.2 6.42 7.54 6.06 10.75 C2.74 12.51 1.47 12.86 -2.25 11.88 C-3.14 11.5 -4.02 11.13 -4.94 10.75 C-4.94 9.76 -4.94 8.77 -4.94 7.75 C-6.92 7.75 -8.9 7.75 -10.94 7.75 C-11.27 7.09 -11.6 6.43 -11.94 5.75 C-11.94 14.33 -11.94 22.91 -11.94 31.75 C-9.3 32.08 -6.66 32.41 -3.94 32.75 C-3.94 30.11 -3.94 27.47 -3.94 24.75 C-5.26 24.75 -6.58 24.75 -7.94 24.75 C-9.06 20 -9.06 20 -7.94 17.75 C-5.98 17.72 -4.02 17.7 -2.06 17.69 C-0.43 17.67 -0.43 17.67 1.24 17.65 C4.06 17.75 4.06 17.75 6.06 18.75 C7.13 24.22 7.76 30.4 6.06 35.75 C4.19 38.22 2.86 39.47 -0.06 40.5 C-8.33 41.22 -13.66 41.06 -20.94 36.75 C-20.94 36.09 -20.94 35.43 -20.94 34.75 C-21.6 34.75 -22.26 34.75 -22.94 34.75 C-23.09 30.57 -23.19 26.39 -23.27 22.21 C-23.3 20.79 -23.34 19.37 -23.39 17.94 C-23.81 6.17 -23.81 6.17 -21.68 2.71 C-15.93 -2.23 -6.83 -2.9 0 0 Z " fill="#F8F8F8" transform="translate(812.9375,337.25)"/>
<path d="M0 0 C3.44 0.19 3.44 0.19 4.44 1.19 C4.6 3.56 4.7 5.91 4.75 8.29 C4.77 8.99 4.8 9.7 4.82 10.43 C4.88 12.71 4.94 14.98 5 17.25 C5.04 18.79 5.09 20.32 5.13 21.86 C5.24 25.64 5.34 29.41 5.44 33.19 C7.75 33.52 10.06 33.85 12.44 34.19 C12.43 33.23 12.42 32.27 12.41 31.28 C12.37 27.73 12.35 24.18 12.33 20.63 C12.32 19.09 12.3 17.55 12.29 16.01 C12.26 13.8 12.25 11.59 12.24 9.38 C12.23 8.69 12.22 8 12.21 7.29 C12.21 5.59 12.32 3.89 12.44 2.19 C14.44 0.19 14.44 0.19 17.44 0 C20.44 0.19 20.44 0.19 22.44 1.19 C22.54 6.24 22.61 11.29 22.66 16.35 C22.68 18.07 22.7 19.79 22.74 21.5 C22.79 23.98 22.81 26.45 22.83 28.92 C22.85 29.69 22.87 30.46 22.89 31.25 C22.89 34.82 22.75 36.78 20.54 39.66 C16.02 42.95 10.82 42.54 5.44 42.19 C0.35 41.11 -2.28 39.21 -5.56 35.19 C-6.03 32.42 -6.2 30.3 -6.12 27.55 C-6.12 26.83 -6.12 26.11 -6.11 25.37 C-6.1 23.85 -6.08 22.34 -6.05 20.82 C-6 18.5 -5.99 16.17 -5.98 13.85 C-5.97 12.37 -5.95 10.9 -5.93 9.43 C-5.93 8.38 -5.93 8.38 -5.92 7.32 C-5.79 2.18 -5.58 0.29 0 0 Z " fill="#FBFBFB" transform="translate(904.5625,335.8125)"/>
<path d="M0 0 C0.85 -0.02 1.69 -0.05 2.57 -0.07 C9.21 -0.11 12.81 1.48 17.62 6.22 C20.05 10.87 18.74 16.42 17.75 21.38 C15.94 24.62 15.94 24.62 12.75 26.38 C9.58 26.88 6.5 27.12 3.3 27.23 C0.82 27.09 0.82 27.09 -0.25 28.38 C-0.48 30.56 -0.66 32.75 -0.81 34.94 C-0.9 36.14 -0.98 37.33 -1.07 38.57 C-1.13 39.49 -1.19 40.42 -1.25 41.38 C-4.22 41.38 -7.19 41.38 -10.25 41.38 C-11.85 38.17 -11.41 34.68 -11.42 31.16 C-11.42 30.34 -11.42 29.53 -11.43 28.69 C-11.43 26.97 -11.44 25.25 -11.44 23.53 C-11.44 20.89 -11.46 18.25 -11.47 15.61 C-11.48 13.93 -11.48 12.26 -11.48 10.59 C-11.49 9.4 -11.49 9.4 -11.5 8.19 C-11.46 -0.73 -7.58 0.01 0 0 Z M-0.25 8.38 C-2.14 10.27 -1.43 12.95 -1.48 15.46 C-1.42 17.62 -1.42 17.62 0.75 19.38 C3.79 19.63 3.79 19.63 6.75 19.38 C7.98 18.37 7.98 18.37 7.85 16.31 C7.84 15.48 7.82 14.66 7.81 13.81 C7.8 12.99 7.79 12.16 7.79 11.31 C7.77 10.67 7.76 10.03 7.75 9.38 C4.99 8.78 2.59 8.38 -0.25 8.38 Z " fill="#FBFBFB" transform="translate(946.25,335.625)"/>
<path d="M0 0 C126.06 0 252.12 0 382 0 C382 0.33 382 0.66 382 1 C255.94 1 129.88 1 0 1 C0 0.67 0 0.34 0 0 Z " fill="#000000" transform="translate(464,499)"/>
<path d="M0 0 C60.72 0 121.44 0 184 0 C184 0.33 184 0.66 184 1 C123.28 1 62.56 1 0 1 C0 0.67 0 0.34 0 0 Z " fill="#000000" transform="translate(954,499)"/>
<path d="M0 0 C36.63 0 73.26 0 111 0 C111 0.33 111 0.66 111 1 C74.37 1 37.74 1 0 1 C0 0.67 0 0.34 0 0 Z " fill="#000000" transform="translate(142,499)"/>
<path d="M0 0 C4.29 0 8.58 0 13 0 C13 0.33 13 0.66 13 1 C8.71 1 4.42 1 0 1 C0 0.67 0 0.34 0 0 Z " fill="#000000" transform="translate(446,499)"/>
<path d="M0 0 C3.63 0 7.26 0 11 0 C11 0.33 11 0.66 11 1 C7.37 1 3.74 1 0 1 C0 0.67 0 0.34 0 0 Z " fill="#000000" transform="translate(127,499)"/>
<path d="M0 0 C0.33 0 0.66 0 1 0 C1 1.98 1 3.96 1 6 C0.67 6 0.34 6 0 6 C0 4.02 0 2.04 0 0 Z " fill="#000000" transform="translate(856,343)"/>
<path d="M0 0 C1.98 0 3.96 0 6 0 C6 0.33 6 0.66 6 1 C4.02 1 2.04 1 0 1 C0 0.67 0 0.34 0 0 Z " fill="#000000" transform="translate(122,108)"/>
<path d="M0 0 C0.33 0 0.66 0 1 0 C1 1.98 1 3.96 1 6 C0.67 6 0.34 6 0 6 C0 4.02 0 2.04 0 0 Z " fill="#000000" transform="translate(636,101)"/>
<path d="M0 0 C0.33 0 0.66 0 1 0 C1 1.65 1 3.3 1 5 C0.67 5 0.34 5 0 5 C0 3.35 0 1.7 0 0 Z " fill="#000000" transform="translate(574,396)"/>
<path d="M0 0 C1.65 0 3.3 0 5 0 C5 0.33 5 0.66 5 1 C3.35 1 1.7 1 0 1 C0 0.67 0 0.34 0 0 Z " fill="#000000" transform="translate(630,108)"/>
<path d="M0 0 C1 4 1 4 1 4 Z " fill="#FCFCFC" transform="translate(505,163)"/>
<path d="M0 0 C4 1 4 1 4 1 Z " fill="#000000" transform="translate(446,108)"/>
<path d="M0 0 C3 1 3 1 3 1 Z " fill="#000000" transform="translate(349,499)"/>
<path d="M0 0 C3 1 3 1 3 1 Z " fill="#000000" transform="translate(256,499)"/>
<path d="" fill="#000000" transform="translate(0,0)"/>
<path d="" fill="#000000" transform="translate(0,0)"/>
<path d="" fill="#000000" transform="translate(0,0)"/>
<path d="M0 0 C2 1 2 1 2 1 Z " fill="#000000" transform="translate(1142,499)"/>
<path d="M0 0 C2 1 2 1 2 1 Z " fill="#000000" transform="translate(122,499)"/>
<path d="" fill="#000000" transform="translate(0,0)"/>
<path d="" fill="#000000" transform="translate(0,0)"/>
<path d="" fill="#000000" transform="translate(0,0)"/>
<path d="" fill="#000000" transform="translate(0,0)"/>
<path d="" fill="#000000" transform="translate(0,0)"/>
<path d="" fill="#000000" transform="translate(0,0)"/>
<path d="" fill="#FCFCFC" transform="translate(0,0)"/>
<path d="" fill="#FCFCFC" transform="translate(0,0)"/>
<path d="" fill="#FCFCFC" transform="translate(0,0)"/>
<path d="" fill="#000000" transform="translate(0,0)"/>
<path d="" fill="#000000" transform="translate(0,0)"/>
<path d="" fill="#000000" transform="translate(0,0)"/>
<path d="" fill="#000000" transform="translate(0,0)"/>
<path d="" fill="#000000" transform="translate(0,0)"/>
<path d="" fill="#000000" transform="translate(0,0)"/>
<path d="" fill="#FCFCFC" transform="translate(0,0)"/>
<path d="" fill="#FCFCFC" transform="translate(0,0)"/>
<path d="" fill="#000000" transform="translate(0,0)"/>
<path d="" fill="#000000" transform="translate(0,0)"/>
<path d="" fill="#000000" transform="translate(0,0)"/>
<path d="" fill="#FCFCFC" transform="translate(0,0)"/>
<path d="" fill="#000000" transform="translate(0,0)"/>
<path d="" fill="#000000" transform="translate(0,0)"/>
<path d="" fill="#FCFCFC" transform="translate(0,0)"/>
<path d="" fill="#000000" transform="translate(0,0)"/>
<path d="" fill="#000000" transform="translate(0,0)"/>
<path d="" fill="#000000" transform="translate(0,0)"/>
<path d="" fill="#000000" transform="translate(0,0)"/>
<path d="" fill="#000000" transform="translate(0,0)"/>
<path d="" fill="#000000" transform="translate(0,0)"/>
<path d="" fill="#000000" transform="translate(0,0)"/>
<path d="" fill="#000000" transform="translate(0,0)"/>
<path d="" fill="#000000" transform="translate(0,0)"/>
<path d="" fill="#000000" transform="translate(0,0)"/>
<path d="" fill="#000000" transform="translate(0,0)"/>
<path d="" fill="#000000" transform="translate(0,0)"/>
<path d="" fill="#000000" transform="translate(0,0)"/>
<path d="" fill="#000000" transform="translate(0,0)"/>
<path d="" fill="#000000" transform="translate(0,0)"/>
<path d="" fill="#000000" transform="translate(0,0)"/>
<path d="" fill="#000000" transform="translate(0,0)"/>
<path d="" fill="#000000" transform="translate(0,0)"/>
<path d="" fill="#000000" transform="translate(0,0)"/>
<path d="" fill="#000000" transform="translate(0,0)"/>
<path d="" fill="#000000" transform="translate(0,0)"/>
<path d="" fill="#000000" transform="translate(0,0)"/>
<path d="" fill="#000000" transform="translate(0,0)"/>
<path d="" fill="#000000" transform="translate(0,0)"/>
<path d="" fill="#000000" transform="translate(0,0)"/>
<path d="" fill="#000000" transform="translate(0,0)"/>
<path d="" fill="#000000" transform="translate(0,0)"/>
<path d="" fill="#000000" transform="translate(0,0)"/>
<path d="" fill="#000000" transform="translate(0,0)"/>
<path d="" fill="#000000" transform="translate(0,0)"/>
<path d="" fill="#000000" transform="translate(0,0)"/>
<path d="" fill="#000000" transform="translate(0,0)"/>
<path d="" fill="#000000" transform="translate(0,0)"/>
<path d="" fill="#000000" transform="translate(0,0)"/>
<path d="" fill="#000000" transform="translate(0,0)"/>
<path d="" fill="#000000" transform="translate(0,0)"/>
<path d="" fill="#000000" transform="translate(0,0)"/>
<path d="" fill="#000000" transform="translate(0,0)"/>
<path d="" fill="#000000" transform="translate(0,0)"/>
<path d="" fill="#000000" transform="translate(0,0)"/>
<path d="" fill="#000000" transform="translate(0,0)"/>
<path d="" fill="#000000" transform="translate(0,0)"/>
<path d="" fill="#000000" transform="translate(0,0)"/>
<path d="" fill="#000000" transform="translate(0,0)"/>
<path d="" fill="#000000" transform="translate(0,0)"/>
<path d="" fill="#000000" transform="translate(0,0)"/>
<path d="" fill="#FCFCFC" transform="translate(0,0)"/>
<path d="" fill="#000000" transform="translate(0,0)"/>
<path d="" fill="#FCFCFC" transform="translate(0,0)"/>
<path d="" fill="#000000" transform="translate(0,0)"/>
<path d="" fill="#000000" transform="translate(0,0)"/>
<path d="" fill="#000000" transform="translate(0,0)"/>
<path d="" fill="#000000" transform="translate(0,0)"/>
<path d="" fill="#000000" transform="translate(0,0)"/>
<path d="" fill="#000000" transform="translate(0,0)"/>
<path d="" fill="#000000" transform="translate(0,0)"/>
<path d="" fill="#000000" transform="translate(0,0)"/>
<path d="" fill="#000000" transform="translate(0,0)"/>
<path d="" fill="#000000" transform="translate(0,0)"/>
<path d="" fill="#000000" transform="translate(0,0)"/>
<path d="" fill="#000000" transform="translate(0,0)"/>
<path d="" fill="#000000" transform="translate(0,0)"/>
</svg>
