<?xml version="1.0" encoding="UTF-8"?>
<!-- Generator: visioncortex VTracer 0.6.3 -->
<svg version="1.1" xmlns="http://www.w3.org/2000/svg" width="1280" height="593">
<path d="M0 0 C43.23 0 86.46 0 131 0 C134.17 6.98 137.22 13.88 140 21 C142.06 26.22 144.12 31.42 146.5 36.5 C150.72 45.54 154.21 54.92 157.87 64.19 C161.44 73.27 161.44 73.27 165.38 82.19 C169.62 91.34 173.16 100.81 176.87 110.19 C180.47 119.33 180.47 119.33 184.44 128.31 C187.03 133.9 189.21 139.63 191.41 145.38 C193.37 150.46 195.51 155.42 197.82 160.36 C199.17 163.37 200.34 166.42 201.5 169.5 C202.98 173.42 204.53 177.26 206.31 181.06 C209.07 186.99 211.45 193.05 213.85 199.12 C216.12 204.84 218.47 210.53 220.88 216.19 C224.53 224.77 227.99 233.43 231.41 242.11 C233.75 248.01 236.24 253.81 238.9 259.57 C240.22 262.49 241.38 265.44 242.5 268.44 C247.56 281.8 253.36 294.87 259 308 C264.42 297.69 268.92 287.04 273.44 276.31 C274.17 274.58 274.9 272.86 275.63 271.13 C279.38 262.27 283.09 253.4 286.73 244.5 C288.61 239.9 290.61 235.36 292.7 230.85 C297.18 221.07 301.4 211.18 305.43 201.2 C306.97 197.39 308.61 193.64 310.32 189.91 C313.12 183.79 315.77 177.61 318.41 171.42 C319.35 169.22 320.29 167.02 321.23 164.83 C322.29 162.35 323.35 159.87 324.41 157.4 C329.02 146.61 333.64 135.84 338.26 125.06 C340.85 119.03 343.43 113 346.02 106.96 C346.52 105.78 347.03 104.6 347.55 103.39 C350.38 96.79 353.2 90.19 356.03 83.59 C357.66 79.78 359.29 75.97 360.93 72.15 C361.67 70.42 362.41 68.69 363.15 66.95 C363.84 65.34 364.54 63.72 365.23 62.1 C365.88 60.58 366.53 59.06 367.18 57.53 C368.76 53.82 370.39 50.15 372.12 46.51 C372.45 45.79 372.79 45.07 373.14 44.32 C373.77 42.96 374.42 41.61 375.09 40.27 C376.63 36.96 377.07 35.3 376.24 31.69 C375.83 30.8 375.42 29.92 375 29 C374.54 27.86 374.54 27.86 374.06 26.69 C373.03 24.66 373.03 24.66 370 24 C370 23.34 370 22.68 370 22 C369.46 21.74 368.91 21.48 368.36 21.21 C364.57 19.26 360.99 16.98 357.36 14.75 C349.92 10.87 342.82 9.5 334.5 8.88 C332.72 8.73 330.94 8.58 329.16 8.43 C328.38 8.37 327.61 8.31 326.81 8.25 C325 8 325 8 324 7 C323.96 4.67 323.96 2.33 324 0 C348.89 -0.02 373.77 -0.04 398.66 -0.05 C410.21 -0.06 421.77 -0.06 433.32 -0.08 C443.39 -0.09 453.45 -0.09 463.52 -0.09 C468.85 -0.1 474.19 -0.1 479.52 -0.11 C484.54 -0.11 489.55 -0.11 494.56 -0.11 C496.41 -0.11 498.26 -0.12 500.1 -0.12 C502.61 -0.12 505.12 -0.12 507.63 -0.12 C508.37 -0.12 509.11 -0.13 509.87 -0.13 C514.89 -0.11 514.89 -0.11 516 1 C516.19 3.44 516.19 3.44 516 6 C513.03 8.97 509.57 8.6 505.56 8.94 C491.62 10.34 478.43 13.26 468.88 24.44 C468.1 25.46 468.1 25.46 467.3 26.5 C466.66 27.24 466.66 27.24 466 28 C465.34 28 464.68 28 464 28 C463.58 29.05 463.58 29.05 463.16 30.11 C462.37 32.07 461.58 34.03 460.78 35.98 C453.49 54.22 453.85 72.55 453.87 91.91 C453.87 94.1 453.87 96.28 453.87 98.46 C453.86 104.36 453.86 110.26 453.87 116.16 C453.87 122.36 453.87 128.57 453.86 134.77 C453.86 145.19 453.86 155.61 453.87 166.03 C453.88 178.03 453.87 190.03 453.87 202.03 C453.86 212.37 453.86 222.72 453.87 233.06 C453.87 239.22 453.87 245.38 453.86 251.54 C453.86 257.34 453.86 263.14 453.87 268.94 C453.87 271.05 453.87 273.16 453.87 275.28 C453.52 301.21 453.52 301.21 456.69 326.88 C456.86 327.74 457.03 328.6 457.21 329.48 C461.2 348.05 470.29 364.01 486.31 374.75 C491.65 377.99 497.03 380.19 503 382 C503.91 382.28 504.82 382.55 505.75 382.84 C521.55 387.37 537.62 388.44 554 388 C554.95 387.98 554.95 387.98 555.92 387.96 C589.22 387.2 620.37 378.27 644 354 C651.8 345.73 658.18 336.74 664 327 C664.34 326.43 664.68 325.86 665.03 325.28 C669.51 317.77 673.55 310.09 677.39 302.24 C678.8 299.36 680.22 296.67 682 294 C682.66 294 683.32 294 684 294 C683.03 300.44 682.03 306.87 680.93 313.29 C675.82 343.09 675.82 343.09 684.91 371.16 C686 373 686 373 687 376 C687.99 376.33 688.98 376.66 690 377 C690 377.66 690 378.32 690 379 C690.56 379.27 691.11 379.54 691.68 379.82 C693.26 380.62 694.82 381.48 696.35 382.37 C705.47 387.43 714.81 389.19 725 391 C725.04 393.33 725.04 395.67 725 398 C723.15 399.85 720.12 399.13 717.65 399.13 C716.97 399.13 716.3 399.13 715.6 399.13 C713.32 399.13 711.03 399.13 708.74 399.13 C707.09 399.13 705.45 399.13 703.8 399.13 C699.26 399.14 694.71 399.13 690.17 399.13 C685.27 399.13 680.38 399.13 675.49 399.13 C665.89 399.14 656.3 399.14 646.7 399.14 C638.91 399.13 631.12 399.13 623.32 399.13 C622.22 399.13 621.11 399.13 619.97 399.13 C617.72 399.13 615.47 399.13 613.22 399.14 C592.11 399.14 571 399.13 549.89 399.13 C531.76 399.12 513.63 399.13 495.49 399.13 C474.46 399.14 453.43 399.14 432.4 399.13 C430.16 399.13 427.92 399.13 425.68 399.13 C424.02 399.13 424.02 399.13 422.34 399.13 C414.55 399.13 406.76 399.13 398.97 399.14 C389.48 399.14 380 399.14 370.51 399.13 C365.67 399.13 360.82 399.13 355.98 399.13 C351.55 399.14 347.12 399.13 342.7 399.13 C341.09 399.13 339.48 399.13 337.87 399.13 C335.7 399.13 333.52 399.13 331.35 399.13 C330.14 399.13 328.93 399.13 327.68 399.13 C325 399 325 399 324 398 C323.88 395 323.88 395 324 392 C325.92 390.08 329.36 390.37 331.94 390.06 C333.32 389.88 334.7 389.7 336.09 389.52 C338.3 389.22 340.51 388.94 342.73 388.67 C354.65 386.84 366.74 380.1 373.93 370.39 C386.17 351.98 385.44 331.08 385.36 309.77 C385.36 307.05 385.36 304.33 385.36 301.61 C385.37 295.04 385.36 288.46 385.34 281.89 C385.32 274.22 385.32 266.56 385.32 258.9 C385.32 245.23 385.31 231.57 385.28 217.91 C385.26 204.65 385.24 191.39 385.24 178.14 C385.24 176.91 385.24 176.91 385.24 175.66 C385.24 174.01 385.24 172.36 385.24 170.71 C385.24 169.89 385.24 169.08 385.24 168.24 C385.24 167.43 385.24 166.62 385.24 165.78 C385.23 153.13 385.22 140.48 385.21 127.83 C385.21 123.25 385.2 118.67 385.2 114.09 C385.19 106.83 385.19 99.57 385.17 92.31 C385.17 89 385.16 85.68 385.16 82.37 C385.16 78.78 385.15 75.19 385.14 71.6 C385.14 70.55 385.14 69.49 385.14 68.4 C385.14 67.45 385.14 66.49 385.13 65.51 C385.13 64.68 385.13 63.85 385.13 63 C385.13 60.93 385.13 60.93 384 59 C383.76 59.57 383.52 60.14 383.27 60.72 C375.31 79.43 375.31 79.43 371.88 86.75 C369.61 91.57 367.56 96.44 365.56 101.38 C363.2 107.19 360.69 112.89 357.98 118.55 C354.21 126.55 350.81 134.7 347.35 142.84 C344.69 149.1 341.96 155.32 339.12 161.51 C337.51 165.1 336.03 168.73 334.56 172.38 C332.08 178.46 329.46 184.46 326.67 190.41 C320.07 204.61 313.96 219.03 307.81 233.44 C298.59 255.06 298.59 255.06 294 265 C290.14 273.5 286.35 282 282.94 290.69 C281.05 295.5 279.02 300.18 276.79 304.85 C272.76 313.39 269.06 322.06 265.38 330.75 C264.09 333.77 262.81 336.78 261.52 339.8 C261.22 340.52 260.91 341.24 260.59 341.98 C258.49 346.89 256.31 351.76 254.07 356.62 C252.45 360.23 250.97 363.89 249.5 367.56 C247.28 373.03 244.92 378.34 242.2 383.58 C240.26 387.51 238.65 391.57 237.02 395.63 C236 398 236 398 235 399 C232.67 399.04 230.33 399.04 228 399 C224.5 392.35 221.37 385.65 218.56 378.69 C216.2 372.85 213.69 367.13 210.98 361.44 C207.26 353.57 203.91 345.53 200.53 337.51 C197.99 331.53 195.37 325.6 192.59 319.72 C188.33 310.67 184.45 301.47 180.55 292.26 C177.02 283.92 173.41 275.64 169.54 267.45 C166.48 260.95 163.67 254.36 160.88 247.75 C157.75 240.39 154.6 233.05 151.27 225.77 C148.87 220.53 146.53 215.27 144.19 210 C143.66 208.82 143.14 207.64 142.59 206.42 C139.21 198.79 135.92 191.13 132.72 183.42 C130.83 178.91 128.85 174.48 126.75 170.06 C122.71 161.54 119.04 152.85 115.35 144.16 C112.33 137.06 109.21 130.01 106 123 C103.87 118.3 101.74 113.59 99.62 108.88 C99.34 108.24 99.05 107.6 98.76 106.95 C95.14 98.9 91.62 90.83 88.33 82.65 C85.93 76.72 83.24 70.95 80.48 65.17 C79.22 62.47 78.09 59.77 77 57 C76.98 89.91 76.96 122.82 76.95 155.73 C76.95 159.62 76.95 163.52 76.95 167.41 C76.94 168.19 76.94 168.96 76.94 169.76 C76.94 182.28 76.93 194.79 76.92 207.31 C76.91 220.17 76.91 233.04 76.91 245.9 C76.9 253.82 76.9 261.75 76.89 269.67 C76.89 275.77 76.89 281.87 76.89 287.97 C76.89 290.45 76.88 292.94 76.88 295.42 C76.86 306.66 76.89 317.88 77.43 329.11 C77.47 329.89 77.5 330.67 77.54 331.48 C78.31 345.57 80.92 360.72 90 372 C91.06 372.94 92.15 373.86 93.25 374.75 C94.61 375.86 94.61 375.86 96 377 C96 377.66 96 378.32 96 379 C96.99 379.37 96.99 379.37 98 379.75 C100.33 380.72 102.46 381.76 104.69 382.94 C113.29 387.22 122.23 388.64 131.66 390 C137.9 390.9 137.9 390.9 139 392 C139.12 395 139.12 395 139 398 C137.28 399.72 135.03 399.13 132.69 399.13 C131.53 399.13 130.38 399.13 129.19 399.14 C127.92 399.13 126.64 399.13 125.33 399.13 C123.98 399.13 122.63 399.13 121.28 399.13 C117.61 399.14 113.94 399.14 110.27 399.13 C106.43 399.13 102.6 399.13 98.77 399.14 C92.33 399.14 85.89 399.14 79.45 399.13 C71.99 399.12 64.54 399.13 57.08 399.13 C50.69 399.14 44.3 399.14 37.91 399.13 C34.09 399.13 30.27 399.13 26.45 399.14 C22.86 399.14 19.26 399.14 15.67 399.13 C13.72 399.13 11.76 399.13 9.81 399.14 C8.65 399.13 7.5 399.13 6.31 399.13 C5.31 399.13 4.3 399.13 3.26 399.13 C1 399 1 399 0 398 C-0.12 395 -0.12 395 0 392 C1.65 390.35 3.76 390.5 6.03 390.17 C7.07 390.01 8.11 389.85 9.18 389.69 C11.36 389.36 13.54 389.04 15.73 388.72 C27.98 386.82 38.32 382.02 47 373 C47.66 373 48.32 373 49 373 C49.27 372.44 49.54 371.89 49.82 371.32 C50.62 369.74 51.48 368.18 52.37 366.65 C61.98 349.34 61.58 330.13 61.52 310.84 C61.52 308.15 61.53 305.46 61.54 302.78 C61.56 296.28 61.55 289.78 61.54 283.28 C61.53 277.99 61.53 272.7 61.54 267.41 C61.54 266.66 61.54 265.9 61.54 265.12 C61.54 263.58 61.54 262.04 61.54 260.5 C61.55 246.12 61.54 231.73 61.52 217.35 C61.5 205.05 61.5 192.76 61.52 180.46 C61.54 166.13 61.55 151.79 61.54 137.46 C61.54 135.92 61.54 134.39 61.54 132.85 C61.53 132.1 61.53 131.35 61.53 130.57 C61.53 125.3 61.54 120.03 61.55 114.75 C61.56 108.31 61.55 101.87 61.53 95.43 C61.52 92.15 61.52 88.88 61.53 85.6 C61.59 65.97 61.37 46.27 51 29 C50.51 27.89 50.51 27.89 50.01 26.75 C49.06 24.65 49.06 24.65 46 24 C46 23.34 46 22.68 46 22 C45.42 21.72 44.85 21.44 44.25 21.15 C42.09 20.05 40.03 18.85 37.94 17.62 C26.97 11.53 15.56 9.1 3.15 8.25 C1 8 1 8 0 7 C0 4.69 0 2.38 0 0 Z " fill="#020202" transform="translate(121,101)"/>
<path d="M0 0 C6.6 0 13.2 0 20 0 C21.14 3.03 22.28 6.05 23.42 9.08 C24.56 11.98 25.81 14.81 27.11 17.64 C30.82 25.72 34.29 33.89 37.79 42.06 C38.99 44.86 40.2 47.66 41.41 50.46 C45.1 59.07 48.75 67.67 52 76.45 C52.97 78.92 54.08 81.21 55.31 83.56 C57.74 88.26 59.67 93.1 61.6 98.02 C65.89 108.83 70.45 119.51 75.06 130.19 C76.6 133.74 78.13 137.3 79.66 140.86 C80.22 142.15 80.22 142.15 80.78 143.46 C83.46 149.69 86.05 155.95 88.61 162.23 C90.57 167.02 92.66 171.73 94.83 176.42 C96.96 181.11 98.91 185.87 100.88 190.62 C101.31 191.67 101.74 192.71 102.19 193.78 C104.14 198.5 106.09 203.22 108.03 207.95 C108.33 208.69 108.64 209.44 108.95 210.21 C109.5 211.54 110.04 212.87 110.58 214.21 C112.07 217.86 113.65 221.45 115.3 225.04 C118.49 232 121.43 239.06 124.38 246.12 C124.95 247.51 125.53 248.89 126.11 250.28 C129.59 258.6 133.05 266.94 136.44 275.3 C137.67 278.27 138.99 281.19 140.33 284.11 C143.25 290.51 146 296.97 148.75 303.44 C167.14 352.31 167.14 352.31 205 385 C209.29 386.32 213.59 387.2 218 388 C218.74 388.14 219.47 388.27 220.23 388.41 C225.15 389.31 230.07 390.17 235 391 C235 393.64 235 396.28 235 399 C209.46 399.02 183.92 399.04 158.39 399.05 C146.53 399.06 134.67 399.06 122.82 399.08 C112.49 399.09 102.15 399.09 91.82 399.09 C86.35 399.1 80.88 399.1 75.4 399.11 C70.26 399.11 65.11 399.11 59.97 399.11 C58.07 399.11 56.18 399.12 54.28 399.12 C51.71 399.12 49.14 399.12 46.56 399.12 C45.8 399.12 45.04 399.13 44.26 399.13 C39.11 399.11 39.11 399.11 38 398 C37.96 396 37.96 394 38 392 C44.43 390.04 50.92 388.8 57.53 387.59 C68.96 385.4 79.27 381.25 86.72 371.93 C92.82 362.74 94.14 353.45 92.49 342.67 C89.46 328.85 83.49 315.98 78 303 C76.72 299.94 75.44 296.88 74.17 293.82 C73.35 291.86 72.53 289.9 71.71 287.95 C68.2 279.55 64.82 271.1 61.49 262.63 C59.63 257.94 57.71 253.31 55.6 248.73 C52.71 242.47 50.15 236.09 47.58 229.69 C43.13 218.61 38.59 207.59 33.83 196.64 C31.66 191.61 29.68 186.56 27.89 181.39 C26.55 177.79 24.9 174.36 23.29 170.88 C21.91 167.79 20.69 164.67 19.5 161.5 C18.02 157.58 16.47 153.74 14.69 149.94 C10.42 140.74 6.85 131.23 3.13 121.81 C0.31 114.66 -2.61 107.59 -5.85 100.62 C-7.43 97.01 -8.71 93.31 -10.02 89.59 C-11.41 85.9 -13.16 82.49 -15 79 C-18.6 87.54 -22.06 96.12 -25.44 104.75 C-25.92 105.98 -26.4 107.21 -26.9 108.47 C-29.87 116.06 -32.79 123.66 -35.59 131.31 C-36.78 134.43 -38.03 137.5 -39.32 140.58 C-42.13 147.26 -44.79 154 -47.44 160.75 C-47.92 161.98 -48.4 163.21 -48.9 164.47 C-51.44 170.96 -53.95 177.46 -56.38 184 C-58.75 190.4 -61.14 196.8 -64 203 C-64.59 204.39 -64.59 204.39 -65.2 205.81 C-67 208 -67 208 -70.36 208.49 C-71.62 208.43 -72.88 208.37 -74.19 208.31 C-75.46 208.27 -76.73 208.22 -78.04 208.18 C-79.02 208.12 -79.99 208.06 -81 208 C-80.31 203.97 -79.13 200.28 -77.75 196.44 C-77.35 195.32 -76.96 194.21 -76.55 193.06 C-74.97 188.82 -73.2 184.66 -71.45 180.49 C-68.9 174.35 -66.44 168.19 -63.97 162.02 C-63.07 159.77 -62.16 157.51 -61.26 155.26 C-58.12 147.42 -55.06 139.55 -52.13 131.63 C-50.3 126.73 -48.32 121.9 -46.28 117.07 C-44 111.6 -41.86 106.06 -39.7 100.54 C-35.36 89.45 -30.96 78.39 -26.44 67.38 C-21.91 56.34 -17.58 45.24 -13.29 34.12 C-10.03 25.65 -6.72 17.21 -3.32 8.8 C-2.14 5.88 -0.99 2.98 0 0 Z " fill="#020202" transform="translate(913,101)"/>
<path d="M0 0 C23.89 0 23.89 0 28.91 4.84 C31.01 9 30.64 13.48 30 18 C28.12 20.69 28.12 20.69 26 22 C25.34 22 24.68 22 24 22 C24.79 24.11 25.58 26.21 26.38 28.31 C26.82 29.48 27.26 30.66 27.71 31.86 C28.91 35.09 28.91 35.09 31 38 C31 38.99 31 39.98 31 41 C27.37 41 23.74 41 20 41 C19 38.71 18 36.42 17 34.12 C16.71 33.47 16.43 32.82 16.13 32.15 C14 27.23 14 27.23 14 25 C12.68 25 11.36 25 10 25 C10 30.28 10 35.56 10 41 C6.7 41 3.4 41 0 41 C0 27.47 0 13.94 0 0 Z M10 8 C9.93 9.52 9.92 11.04 9.94 12.56 C9.95 13.39 9.96 14.22 9.96 15.07 C9.98 15.7 9.99 16.34 10 17 C14 17.09 14 17.09 18 17 C19.21 16.02 19.21 16.02 19.1 14.15 C19.09 13.42 19.07 12.69 19.06 11.94 C19.04 10.64 19.02 9.34 19 8 C16.44 6.72 12.22 5.78 10 8 Z " fill="#020202" transform="translate(827,337)"/>
<path d="M0 0 C2.75 1.86 3.35 2.65 4.5 5.69 C4.93 10.16 4.82 14.64 4.81 19.12 C4.83 20.35 4.84 21.58 4.86 22.85 C4.86 24.62 4.86 24.62 4.86 26.43 C4.87 27.51 4.87 28.59 4.87 29.7 C4.45 33.08 3.49 34.96 1.5 37.69 C-4.73 41.68 -12.54 41.19 -19.5 39.69 C-23.2 37.54 -24.9 35.59 -26.5 31.69 C-26.92 27.74 -26.82 23.78 -26.81 19.81 C-26.83 18.74 -26.84 17.66 -26.86 16.55 C-26.87 6.45 -26.87 6.45 -23.5 1.69 C-15.83 -3.05 -8.37 -3.14 0 0 Z M-15.5 7.69 C-15.78 10.21 -15.78 10.21 -15.7 13.13 C-15.69 14.21 -15.68 15.29 -15.68 16.39 C-15.66 17.52 -15.64 18.65 -15.62 19.81 C-15.62 20.95 -15.61 22.08 -15.6 23.25 C-15.57 26.07 -15.54 28.88 -15.5 31.69 C-12.74 33.07 -10.55 32.88 -7.5 32.69 C-4.93 30.12 -5.24 29.1 -5.23 25.53 C-5.23 24.51 -5.23 23.49 -5.23 22.43 C-5.23 21.36 -5.24 20.29 -5.25 19.19 C-5.24 17.58 -5.24 17.58 -5.23 15.94 C-5.23 14.92 -5.23 13.9 -5.23 12.84 C-5.24 11.9 -5.24 10.96 -5.24 9.99 C-5.28 7.49 -5.28 7.49 -7.5 5.69 C-12 5.18 -12 5.18 -15.5 7.69 Z " fill="#020202" transform="translate(889.5,338.3125)"/>
<path d="M0 0 C2.96 3.75 3 4.99 3 10 C-0.63 10 -4.26 10 -8 10 C-8.66 8.35 -9.32 6.7 -10 5 C-11.65 5.33 -13.3 5.66 -15 6 C-15.33 13.92 -15.66 21.84 -16 30 C-13.69 30 -11.38 30 -9 30 C-7.7 28.93 -7.7 28.93 -7.94 26.44 C-7.96 25.63 -7.98 24.83 -8 24 C-9.32 23.34 -10.64 22.68 -12 22 C-12 20.02 -12 18.04 -12 16 C-9.25 14.63 -7 14.87 -3.94 14.88 C-2.85 14.87 -1.77 14.87 -0.65 14.87 C2 15 2 15 3 16 C3.18 18.6 3.28 21.15 3.31 23.75 C3.34 24.47 3.37 25.18 3.4 25.92 C3.44 29.61 3.14 31.77 1.19 34.93 C-2.54 38.46 -6.51 38.89 -11.5 39.25 C-16.82 38.87 -20.54 38.24 -24.68 34.73 C-28.5 29.9 -27.68 23.85 -27.56 18 C-27.57 16.84 -27.58 15.67 -27.6 14.48 C-27.54 8.11 -27.48 3.72 -23 -1 C-16.08 -5.85 -6.72 -4.48 0 0 Z " fill="#020202" transform="translate(817,340)"/>
<path d="M0 0 C3.3 0 6.6 0 10 0 C10.33 10.56 10.66 21.12 11 32 C12.65 32.33 14.3 32.66 16 33 C17.02 26.34 17.09 19.86 17 13.12 C16.97 11.07 16.95 9.01 16.94 6.95 C16.93 6.04 16.91 5.14 16.9 4.21 C17 2 17 2 18 0 C21.3 0 24.6 0 28 0 C28.1 4.89 28.17 9.79 28.22 14.68 C28.24 16.34 28.27 18.01 28.3 19.67 C28.35 22.06 28.37 24.46 28.39 26.86 C28.41 27.6 28.43 28.34 28.45 29.1 C28.45 32.74 28.12 34.81 26.17 37.92 C22.6 41.34 19.16 42 14.28 42 C9.23 41.68 5.02 41.35 1 38 C-0.59 34.83 -0.12 31.41 -0.1 27.93 C-0.1 27.13 -0.09 26.34 -0.09 25.52 C-0.09 22.97 -0.08 20.42 -0.06 17.88 C-0.06 16.15 -0.05 14.42 -0.05 12.7 C-0.04 8.47 -0.02 4.23 0 0 Z " fill="#020202" transform="translate(900,337)"/>
<path d="M0 0 C0.9 -0.01 1.8 -0.02 2.72 -0.04 C7.66 -0.05 11.68 0.24 16.31 2.19 C16.31 2.85 16.31 3.51 16.31 4.19 C16.97 4.19 17.63 4.19 18.31 4.19 C20.66 8.88 19.94 15.11 19.31 20.19 C17.41 23.36 14.95 24.67 11.41 25.79 C9.08 26.23 6.93 26.28 4.56 26.25 C2.46 26.22 2.46 26.22 0.31 26.19 C0.31 31.14 0.31 36.09 0.31 41.19 C-7.4 41.29 -7.4 41.29 -9.69 41.19 C-11.56 39.32 -10.82 36.64 -10.83 34.15 C-10.82 33.31 -10.82 32.46 -10.82 31.59 C-10.82 30.73 -10.82 29.87 -10.82 28.98 C-10.82 27.16 -10.82 25.33 -10.82 23.5 C-10.81 20.7 -10.82 17.89 -10.82 15.09 C-10.82 13.32 -10.82 11.55 -10.82 9.78 C-10.82 8.94 -10.82 8.09 -10.83 7.22 C-10.79 -1.6 -7.82 0.01 0 0 Z M0.31 7.19 C0.31 10.82 0.31 14.45 0.31 18.19 C2.95 18.19 5.59 18.19 8.31 18.19 C8.31 14.89 8.31 11.59 8.31 8.19 C5.6 6.83 3.3 7.12 0.31 7.19 Z " fill="#020202" transform="translate(945.6875,336.8125)"/>
</svg>
