<svg width="37" height="26" viewBox="0 0 37 26" fill="none" xmlns="http://www.w3.org/2000/svg">
<g clip-path="url(#clip0_1627_32)">
<path d="M34.9 0H1.96C0.877522 0 0 0.908862 0 2.03V23.61C0 24.7311 0.877522 25.64 1.96 25.64H34.9C35.9825 25.64 36.86 24.7311 36.86 23.61V2.03C36.86 0.908862 35.9825 0 34.9 0Z" fill="#FF0000"/>
<path d="M16.1799 2.30957H20.6799V7.56957H25.9399V12.0696H20.6799V17.3296H16.1799V12.0696H10.9199V7.56957H16.1799V2.30957Z" fill="#FEFEFE"/>
<path d="M5.48819 24V20.3636H7.66859V20.7543H5.92853V21.983H7.50524V22.3736H5.92853V24H5.48819ZM8.42276 24V20.3636H9.65146C9.93555 20.3636 10.1687 20.4122 10.351 20.5092C10.5333 20.6051 10.6683 20.7371 10.7559 20.9052C10.8435 21.0733 10.8873 21.2644 10.8873 21.4787C10.8873 21.6929 10.8435 21.8829 10.7559 22.0487C10.6683 22.2144 10.5339 22.3446 10.3528 22.4393C10.1717 22.5328 9.94028 22.5795 9.65856 22.5795H8.66424V22.1818H9.64435C9.83848 22.1818 9.99473 22.1534 10.1131 22.0966C10.2327 22.0398 10.3191 21.9593 10.3723 21.8551C10.4268 21.7498 10.454 21.6243 10.454 21.4787C10.454 21.3331 10.4268 21.2058 10.3723 21.0969C10.3179 20.988 10.2309 20.904 10.1113 20.8448C9.99177 20.7844 9.83375 20.7543 9.63725 20.7543H8.8631V24H8.42276ZM10.1344 22.3665L11.0293 24H10.5179L9.63725 22.3665H10.1344ZM11.621 24V20.3636H13.8156V20.7543H12.0613V21.983H13.702V22.3736H12.0613V23.6094H13.844V24H11.621ZM14.6093 24V20.3636H16.8039V20.7543H15.0496V21.983H16.6903V22.3736H15.0496V23.6094H16.8323V24H14.6093ZM19.0038 24V20.3636H20.2325C20.5178 20.3636 20.751 20.4151 20.9321 20.5181C21.1144 20.6199 21.2493 20.7578 21.3369 20.9318C21.4245 21.1058 21.4683 21.3 21.4683 21.5142C21.4683 21.7285 21.4245 21.9232 21.3369 22.0984C21.2505 22.2736 21.1167 22.4132 20.9356 22.5174C20.7545 22.6204 20.5225 22.6719 20.2396 22.6719H19.3589V22.2812H20.2254C20.4207 22.2812 20.5776 22.2475 20.6959 22.18C20.8143 22.1126 20.9001 22.0214 20.9534 21.9066C21.0078 21.7906 21.0351 21.6598 21.0351 21.5142C21.0351 21.3686 21.0078 21.2384 20.9534 21.1236C20.9001 21.0088 20.8137 20.9188 20.6942 20.8537C20.5746 20.7874 20.416 20.7543 20.2183 20.7543H19.4442V24H19.0038ZM25.2458 22.1818C25.2458 22.5653 25.1766 22.8968 25.0381 23.1761C24.8996 23.4555 24.7096 23.6709 24.4681 23.8224C24.2267 23.974 23.9508 24.0497 23.6407 24.0497C23.3306 24.0497 23.0548 23.974 22.8133 23.8224C22.5718 23.6709 22.3818 23.4555 22.2433 23.1761C22.1048 22.8968 22.0356 22.5653 22.0356 22.1818C22.0356 21.7983 22.1048 21.4669 22.2433 21.1875C22.3818 20.9081 22.5718 20.6927 22.8133 20.5412C23.0548 20.3897 23.3306 20.3139 23.6407 20.3139C23.9508 20.3139 24.2267 20.3897 24.4681 20.5412C24.7096 20.6927 24.8996 20.9081 25.0381 21.1875C25.1766 21.4669 25.2458 21.7983 25.2458 22.1818ZM24.8197 22.1818C24.8197 21.867 24.767 21.6012 24.6617 21.3846C24.5575 21.168 24.416 21.004 24.2373 20.8928C24.0597 20.7815 23.8609 20.7259 23.6407 20.7259C23.4205 20.7259 23.2211 20.7815 23.0423 20.8928C22.8648 21.004 22.7233 21.168 22.618 21.3846C22.5138 21.6012 22.4617 21.867 22.4617 22.1818C22.4617 22.4967 22.5138 22.7624 22.618 22.979C22.7233 23.1957 22.8648 23.3596 23.0423 23.4709C23.2211 23.5821 23.4205 23.6378 23.6407 23.6378C23.8609 23.6378 24.0597 23.5821 24.2373 23.4709C24.416 23.3596 24.5575 23.1957 24.6617 22.979C24.767 22.7624 24.8197 22.4967 24.8197 22.1818ZM25.9862 24V20.3636H27.2149C27.499 20.3636 27.7322 20.4122 27.9145 20.5092C28.0968 20.6051 28.2317 20.7371 28.3193 20.9052C28.4069 21.0733 28.4507 21.2644 28.4507 21.4787C28.4507 21.6929 28.4069 21.8829 28.3193 22.0487C28.2317 22.2144 28.0974 22.3446 27.9163 22.4393C27.7352 22.5328 27.5038 22.5795 27.222 22.5795H26.2277V22.1818H27.2078C27.402 22.1818 27.5582 22.1534 27.6766 22.0966C27.7961 22.0398 27.8825 21.9593 27.9358 21.8551C27.9903 21.7498 28.0175 21.6243 28.0175 21.4787C28.0175 21.3331 27.9903 21.2058 27.9358 21.0969C27.8814 20.988 27.7944 20.904 27.6748 20.8448C27.5552 20.7844 27.3972 20.7543 27.2007 20.7543H26.4266V24H25.9862ZM27.6979 22.3665L28.5928 24H28.0814L27.2007 22.3665H27.6979ZM28.9856 20.7543V20.3636H31.7129V20.7543H30.5694V24H30.1291V20.7543H28.9856Z" fill="white"/>
</g>
<defs>
<clipPath id="clip0_1627_32">
<rect width="36.86" height="25.64" fill="white"/>
</clipPath>
</defs>
</svg>
